<svg id="svgQrWrapper" viewBox="0 0 300 300" xmlns="http://www.w3.org/2000/svg" xmlns:xlink="http://www.w3.org/1999/xlink" style="width: 100%; height: 100%; background-color: rgb(255, 255, 255, 0);"><svg xmlns="http://www.w3.org/2000/svg" viewBox="0 0 2000 2000" width="300" height="300" fill="none"><g><defs><style>.cls-chr61{fill:#d82e2a}.cls-chr62{fill:#bfd8c2}.cls-chr63{fill:#0d372d}</style></defs><path d="m1753.77 1767.89-13.15-2.09c-4.84-.77-9.69-1.54-14.57-2.3l3.1-19.86c.5.08 1 .16 1.5.23l-.18-1.51 19.96-2.34c.58 4.9 1.15 9.78 1.74 14.65l1.58 13.22ZM1697.32 1759.1c-9.52-1.43-19.2-2.85-28.76-4.22l2.86-19.9c9.6 1.38 19.32 2.81 28.88 4.24l-2.98 19.88Zm-1419.18 0-2.98-19.88c9.58-1.44 19.3-2.86 28.88-4.24l2.86 19.9c-9.54 1.37-19.22 2.79-28.76 4.22Zm1361.63-8.27c-9.56-1.31-19.26-2.62-28.81-3.87l2.62-19.93c9.59 1.26 19.33 2.57 28.93 3.89l-2.74 19.91Zm-1304.08 0-2.74-19.92c9.63-1.32 19.36-2.63 28.93-3.89l2.62 19.93c-9.53 1.25-19.22 2.55-28.81 3.87Zm1246.44-7.57c-9.56-1.2-19.27-2.38-28.86-3.52l2.38-19.96c9.62 1.15 19.37 2.33 28.98 3.54l-2.5 19.95Zm-1188.79 0-2.5-19.95c9.61-1.2 19.36-2.39 28.98-3.54l2.38 19.96c-9.58 1.14-19.29 2.32-28.86 3.52Zm1131.06-6.87c-9.58-1.08-19.3-2.15-28.9-3.17l2.13-19.99c9.64 1.03 19.4 2.1 29.02 3.18l-2.25 19.98Zm-1073.33 0-2.25-19.98c9.62-1.08 19.38-2.16 29.02-3.18l2.13 19.99c-9.59 1.02-19.32 2.09-28.9 3.17Zm1015.52-6.17c-9.59-.96-19.33-1.91-28.93-2.82l1.89-20.01c9.65.91 19.42 1.86 29.05 2.83l-2.01 20Zm-957.7 0-2.01-20c9.62-.97 19.4-1.92 29.05-2.83l1.89 20.01c-9.61.91-19.35 1.86-28.93 2.82Zm899.82-5.46c-9.58-.85-19.32-1.68-28.97-2.47l1.65-20.03c9.68.8 19.47 1.63 29.09 2.48l-1.77 20.02Zm-841.94 0-1.77-20.02c9.62-.85 19.41-1.68 29.09-2.48l1.65 20.03c-9.64.79-19.39 1.62-28.97 2.47Zm783.99-4.76c-9.65-.73-19.41-1.45-28.99-2.12l1.4-20.05c9.63.67 19.42 1.39 29.12 2.13l-1.53 20.04Zm-726.05 0-1.52-20.04c9.69-.74 19.49-1.45 29.11-2.13l1.4 20.05c-9.59.67-19.34 1.38-28.99 2.12Zm668.05-4.06c-9.66-.62-19.42-1.21-29.02-1.76l1.16-20.07c9.63.56 19.44 1.15 29.14 1.77l-1.28 20.06Zm-610.06 0-1.28-20.06c9.73-.62 19.54-1.22 29.14-1.77l1.16 20.07c-9.56.55-19.33 1.15-29.02 1.76Zm552.01-3.35c-9.61-.5-19.38-.97-29.04-1.41l.91-20.08c9.69.44 19.5.92 29.16 1.42l-1.04 20.08Zm-493.97 0-1.04-20.08c9.65-.5 19.46-.98 29.16-1.42l.92 20.08c-9.65.44-19.42.92-29.04 1.41Zm435.89-2.65c-9.65-.38-19.42-.74-29.05-1.06l.67-20.09c9.67.32 19.48.68 29.17 1.06l-.79 20.09Zm-377.81 0-.79-20.09c9.69-.38 19.51-.74 29.17-1.06l.67 20.09c-9.63.32-19.4.68-29.05 1.06Zm58.11-1.94-.55-20.09c9.72-.27 19.54-.5 29.18-.71l.43 20.1c-9.6.2-19.38.44-29.06.71Zm261.6 0c-9.65-.26-19.43-.5-29.06-.71l.43-20.1c9.67.21 19.49.44 29.18.71l-.55 20.09Zm-58.13-1.24c-9.63-.15-19.41-.27-29.07-.35l.18-20.1c9.7.09 19.52.21 29.19.35l-.3 20.1Zm-145.34 0-.3-20.1c9.67-.15 19.49-.27 29.19-.35l.18 20.1c-9.66.09-19.44.21-29.07.35Zm87.21-.53c-4.26-.01-8.54-.02-12.82-.02h-1.72c-4.85 0-9.7 0-14.54.02l-.06-20.1c4.86-.01 9.72-.02 14.6-.02h1.72c4.3 0 8.59 0 12.88.02l-.06 20.1ZM221.67 1767.89l1.6-13.23c.59-4.87 1.17-9.75 1.75-14.65l19.96 2.37-.18 1.49c.5-.08.99-.15 1.49-.23l3.1 19.86c-4.88.76-9.73 1.53-14.57 2.3l-13.16 2.1ZM248.34 1713.45l-19.97-2.27c1.09-9.58 2.17-19.29 3.21-28.85l19.98 2.18c-1.05 9.59-2.13 19.33-3.22 28.95Zm6.32-57.91-19.99-2.09c1.01-9.67 2-19.39 2.95-28.88l20 1.99c-.95 9.53-1.94 19.27-2.96 28.98Zm5.78-57.96-20.01-1.9c.93-9.74 1.83-19.47 2.68-28.91l20.02 1.81c-.86 9.47-1.76 19.23-2.69 29Zm5.24-58.01-20.03-1.72c.83-9.62 1.64-19.36 2.41-28.93l20.04 1.62c-.78 9.61-1.59 19.37-2.42 29.03Zm4.71-58.06-20.04-1.53c.75-9.77 1.47-19.51 2.14-28.95l20.05 1.44c-.68 9.48-1.4 19.25-2.15 29.05Zm4.17-58.1-20.06-1.35c.65-9.64 1.28-19.39 1.88-28.97l20.06 1.25c-.6 9.62-1.23 19.39-1.88 29.06Zm3.63-58.14-20.07-1.16c.55-9.58 1.09-19.33 1.61-28.99l20.07 1.07c-.52 9.69-1.06 19.47-1.61 29.08Zm3.1-58.17-20.08-.98c.47-9.72.92-19.48 1.34-29l20.08.88c-.42 9.56-.87 19.34-1.34 29.1Zm2.56-58.19-20.09-.79c.37-9.52.74-19.28 1.07-29.01l20.09.7c-.34 9.76-.7 19.55-1.08 29.11Zm2.02-58.22-20.09-.6c.29-9.64.56-19.32.81-29.02l20.1.51c-.25 9.74-.52 19.44-.81 29.11Zm1.48-58.23-20.1-.42c.2-9.67.38-19.43.54-29.03l20.1.33c-.16 9.62-.34 19.42-.54 29.12Zm.94-58.24-20.1-.23c.11-9.65.2-19.32.27-29.03l20.1.14c-.07 9.74-.16 19.45-.27 29.12Zm.41-58.2-20.1-.05c.01-4.85.02-9.7.02-14.56 0-4.31 0-8.63-.01-12.95v-1.52l20.1-.04v1.52c.01 4.34.02 8.67.02 12.99 0 4.88 0 9.75-.02 14.61Zm-20.24-58.11c-.07-9.66-.16-19.43-.27-29.03l20.1-.23c.11 9.63.2 19.43.27 29.12l-20.1.14Zm-.67-58.06c-.16-9.59-.34-19.36-.54-29.03l20.1-.42c.2 9.7.38 19.5.54 29.12l-20.1.33Zm-1.21-58.05c-.25-9.73-.52-19.49-.8-29.02l20.09-.61c.29 9.56.56 19.35.81 29.12l-20.1.51Zm-1.74-58.04c-.34-9.73-.7-19.49-1.07-29.01l20.09-.79c.38 9.56.74 19.35 1.08 29.11l-20.09.7Zm-2.28-58.02c-.42-9.59-.87-19.35-1.34-29l20.08-.98c.47 9.69.92 19.48 1.35 29.09l-20.08.88Zm-2.82-58c-.51-9.66-1.05-19.41-1.61-28.99l20.07-1.16c.56 9.61 1.1 19.39 1.61 29.08l-20.07 1.07Zm-3.35-57.97c-.6-9.59-1.23-19.33-1.88-28.97l20.06-1.35c.65 9.67 1.28 19.45 1.88 29.06l-20.06 1.25Zm-3.89-57.94c-.7-9.69-1.41-19.34-2.14-28.95l20.04-1.53c.74 9.64 1.45 19.32 2.15 29.04l-20.05 1.44Zm-4.42-57.9c-.78-9.58-1.59-19.31-2.41-28.93l20.03-1.72c.83 9.65 1.64 19.42 2.42 29.03l-20.04 1.62Zm-4.96-57.85c-.87-9.64-1.77-19.37-2.68-28.91l20.01-1.9c.91 9.57 1.81 19.33 2.69 29l-20.02 1.81Zm-5.5-57.81c-.95-9.5-1.94-19.21-2.95-28.88l19.99-2.09c1.01 9.7 2.01 19.45 2.96 28.98l-20 1.99Zm-6.03-57.75c-1.04-9.57-2.12-19.27-3.21-28.85l19.97-2.27c1.09 9.61 2.18 19.35 3.22 28.95l-19.98 2.18ZM225.02 262.77c-.58-4.9-1.16-9.78-1.75-14.65l-1.52-12.54 12.56 1.34c4.88.52 9.77 1.04 14.68 1.55l-2.09 19.99c-.73-.08-1.45-.15-2.18-.23.09.72.17 1.45.26 2.17l-19.96 2.37ZM987.73 297.04c-5 0-9.99 0-14.98-.02l.04-20.1a7018 7018 0 0 0 29.02 0l.04 20.1c-4.72 0-9.42.01-14.13.01Zm43.28-.13-.12-20.1c9.72-.06 19.41-.14 29.07-.24l.21 20.1c-9.69.1-19.41.18-29.16.24Zm-87.32 0c-9.71-.06-19.4-.14-29.05-.24l.21-20.1c9.63.1 19.28.18 28.97.24l-.12 20.1Zm145.63-.59-.29-20.1c9.72-.14 19.41-.3 29.07-.47l.37 20.1c-9.69.18-19.41.34-29.15.47Zm-203.73 0c-9.71-.14-19.39-.3-29.05-.48l.37-20.1c9.63.18 19.28.33 28.97.47l-.29 20.1Zm262.03-1.06-.45-20.1c9.72-.22 19.41-.46 29.07-.71l.53 20.09c-9.69.26-19.4.5-29.15.71Zm-320.12 0c-9.71-.22-19.39-.46-29.04-.71l.53-20.09c9.62.26 19.28.49 28.96.71l-.45 20.1Zm378.42-1.54-.62-20.09c9.72-.3 19.4-.61 29.06-.95l.7 20.09c-9.68.34-19.4.65-29.14.95Zm-436.5 0c-9.71-.3-19.39-.61-29.04-.95l.7-20.09c9.62.33 19.27.65 28.95.95l-.61 20.09Zm-58.12-2.02c-9.73-.38-19.42-.77-29.08-1.19l.86-20.08c9.63.41 19.3.81 29 1.18l-.78 20.09Zm552.89 0-.78-20.09c9.71-.38 19.4-.77 29.05-1.19l.86 20.08c-9.68.42-19.39.81-29.13 1.19Zm-611.05-2.49c-9.72-.46-19.41-.93-29.07-1.42l1.03-20.08c9.63.49 19.29.96 28.99 1.42l-.94 20.08Zm669.25 0-.94-20.08c9.7-.46 19.36-.93 28.99-1.42l1.03 20.08c-9.66.49-19.35.97-29.07 1.42ZM595 286.25c-9.72-.54-19.41-1.09-29.06-1.66l1.19-20.07c9.62.57 19.28 1.12 28.98 1.66L595 286.25Zm785.52 0-1.11-20.07c9.69-.53 19.35-1.09 28.98-1.66l1.19 20.07c-9.65.57-19.34 1.13-29.06 1.66Zm-843.63-3.44c-9.72-.61-19.4-1.25-29.04-1.9l1.35-20.06c9.62.65 19.27 1.28 28.96 1.89l-1.27 20.06Zm901.73 0-1.27-20.06c9.69-.61 19.34-1.25 28.96-1.89l1.35 20.06c-9.64.65-19.33 1.28-29.04 1.9Zm-959.81-3.91c-9.71-.69-19.39-1.41-29.03-2.14l1.52-20.04c9.61.73 19.26 1.44 28.94 2.13l-1.43 20.05Zm1017.89 0-1.43-20.05c9.69-.69 19.33-1.4 28.94-2.13l1.52 20.04c-9.64.73-19.31 1.44-29.03 2.14Zm-1075.93-4.38c-9.71-.77-19.38-1.57-29.01-2.37l1.68-20.03c9.6.8 19.24 1.59 28.93 2.37l-1.6 20.04Zm1133.97 0-1.6-20.04c9.68-.77 19.32-1.56 28.93-2.37l1.68 20.03c-9.63.81-19.3 1.6-29.01 2.37Zm-1191.98-4.86c-9.7-.85-19.37-1.72-28.99-2.61l1.84-20.02c9.59.88 19.23 1.75 28.91 2.6l-1.76 20.02Zm1249.98 0-1.76-20.02c9.68-.85 19.31-1.72 28.91-2.6l1.84 20.02c-9.62.89-19.29 1.76-28.99 2.61Zm-1307.95-5.33c-9.7-.93-19.35-1.88-28.96-2.85l2.01-20c9.58.96 19.21 1.91 28.88 2.84l-1.92 20.01Zm1365.91 0-1.92-20.01c9.67-.93 19.3-1.88 28.88-2.84l2.01 20c-9.61.96-19.27 1.91-28.96 2.85ZM1750.45 262.76l-19.96-2.34c.09-.73.17-1.46.26-2.19-.73.08-1.46.15-2.19.23l-2.09-19.99c4.91-.51 9.8-1.03 14.68-1.55l12.55-1.34-1.5 12.53c-.58 4.87-1.16 9.75-1.74 14.65ZM1727.15 1713.38c-1.08-9.6-2.15-19.25-3.2-28.95l19.99-2.16c1.05 9.67 2.11 19.29 3.19 28.86l-19.97 2.25Zm-6.26-57.91c-1-9.7-1.99-19.45-2.93-28.98l20-1.98c.94 9.49 1.92 19.21 2.92 28.88l-20 2.07Zm-5.73-57.96c-.9-9.58-1.8-19.33-2.67-29l20.02-1.79c.86 9.64 1.76 19.36 2.66 28.91l-20.01 1.89Zm-5.2-58.02c-.81-9.52-1.62-19.28-2.4-29.03l20.04-1.61c.78 9.71 1.59 19.45 2.39 28.93l-20.03 1.7Zm-4.67-58.06c-.73-9.64-1.44-19.32-2.13-29.04l20.05-1.43c.69 9.69 1.4 19.34 2.13 28.95l-20.04 1.52Zm-4.13-58.1c-.64-9.67-1.27-19.45-1.87-29.06l20.06-1.24c.59 9.59 1.22 19.33 1.86 28.97l-20.06 1.34Zm-3.6-58.14c-.55-9.65-1.09-19.35-1.6-29.08l20.07-1.06c.51 9.7 1.04 19.36 1.6 28.99l-20.07 1.15Zm-3.07-58.17c-.46-9.66-.91-19.36-1.33-29.09l20.08-.88c.42 9.7.87 19.37 1.33 29l-20.08.97Zm-2.54-58.19c-.38-9.62-.74-19.42-1.07-29.11l20.09-.69c.33 9.66.69 19.42 1.06 29.01l-20.09.78Zm-2-58.21c-.29-9.63-.56-19.42-.8-29.11l20.1-.51c.24 9.66.51 19.42.8 29.02l-20.09.6Zm-1.47-58.23c-.2-9.67-.38-19.38-.53-29.12l20.1-.32c.16 9.71.33 19.38.53 29.03l-20.1.41Zm-.93-58.24c-.11-9.63-.2-19.43-.27-29.12l20.1-.14c.07 9.66.16 19.43.27 29.03l-20.1.23Zm-.4-58.25c-.01-4.85-.02-9.68-.02-14.52s0-9.75.02-14.61l20.1.04c-.01 4.85-.02 9.7-.02 14.56s0 9.64.02 14.47l-20.1.05Zm20.23-58.06-20.1-.14c.07-9.74.16-19.45.27-29.12l20.1.23c-.11 9.65-.2 19.32-.27 29.03Zm.67-58.06-20.1-.33c.16-9.74.34-19.44.54-29.12l20.1.41c-.2 9.64-.38 19.32-.53 29.03Zm1.2-58.05-20.1-.51c.25-9.74.51-19.44.8-29.11l20.09.6c-.29 9.64-.55 19.31-.8 29.02Zm1.73-58.04-20.09-.69c.33-9.74.69-19.44 1.07-29.1l20.09.78c-.38 9.64-.73 19.31-1.06 29.01Zm2.26-58.02-20.08-.88c.42-9.73.87-19.43 1.34-29.09l20.08.97c-.46 9.63-.91 19.3-1.33 29Zm2.79-58-20.07-1.06c.51-9.69 1.05-19.47 1.6-29.08l20.07 1.15c-.55 9.58-1.09 19.33-1.6 28.99Zm3.33-57.97-20.06-1.24c.6-9.62 1.22-19.4 1.87-29.06l20.06 1.34c-.64 9.64-1.27 19.39-1.86 28.97Zm3.86-57.93-20.05-1.43c.69-9.72 1.4-19.41 2.13-29.05l20.04 1.52c-.73 9.61-1.44 19.26-2.13 28.95Zm4.39-57.9-20.04-1.61c.76-9.47 1.57-19.23 2.4-29.02l20.03 1.7c-.83 9.76-1.63 19.49-2.39 28.93Zm4.92-57.85-20.02-1.79c.87-9.71 1.76-19.38 2.67-29l20.01 1.89c-.9 9.59-1.79 19.23-2.66 28.91Zm5.45-57.81-20-1.98c.94-9.53 1.93-19.28 2.93-28.98l20 2.07c-1 9.67-1.98 19.39-2.92 28.88Zm5.98-57.75-19.99-2.16c1.05-9.7 2.12-19.35 3.2-28.95l19.97 2.25c-1.08 9.57-2.14 19.19-3.19 28.86Z" class="cls-chr63"/><path d="m556.04 208.35 15.63 31.67a6.73 6.73 0 0 0 5.07 3.68l34.95 5.08c5.52.8 7.73 7.59 3.73 11.49l-25.29 24.65a6.747 6.747 0 0 0-1.94 5.96l5.97 34.81c.94 5.5-4.83 9.7-9.77 7.1l-31.26-16.44a6.748 6.748 0 0 0-6.27 0l-31.26 16.44c-4.94 2.6-10.71-1.6-9.77-7.1l5.97-34.81c.37-2.18-.35-4.41-1.94-5.96l-25.29-24.65c-4-3.9-1.79-10.68 3.73-11.49l34.95-5.08c2.19-.32 4.09-1.7 5.07-3.68l15.63-31.67c2.47-5 9.61-5 12.08 0Z" class="cls-chr62"/><path d="m868.43 237.62 10.25 20.77c.64 1.3 1.89 2.21 3.32 2.42l22.92 3.33c3.62.53 5.07 4.98 2.45 7.53l-16.59 16.17a4.407 4.407 0 0 0-1.27 3.91l3.92 22.83c.62 3.61-3.17 6.36-6.41 4.65l-20.5-10.78a4.395 4.395 0 0 0-4.11 0l-20.5 10.78c-3.24 1.7-7.02-1.05-6.41-4.65l3.92-22.83c.25-1.43-.23-2.89-1.27-3.91l-16.59-16.17c-2.62-2.55-1.17-7 2.45-7.53l22.92-3.33a4.392 4.392 0 0 0 3.32-2.42l10.25-20.77c1.62-3.28 6.3-3.28 7.92 0ZM1170.79 238.35l12.61 25.56c.79 1.6 2.32 2.72 4.09 2.97l28.21 4.1c4.46.65 6.24 6.12 3.01 9.27l-20.41 19.9a5.417 5.417 0 0 0-1.56 4.81l4.82 28.09c.76 4.44-3.9 7.82-7.88 5.73l-25.23-13.26a5.453 5.453 0 0 0-5.06 0l-25.23 13.26c-3.99 2.1-8.65-1.29-7.88-5.73l4.82-28.09c.3-1.76-.28-3.56-1.56-4.81l-20.41-19.9c-3.23-3.14-1.45-8.62 3.01-9.27l28.21-4.1c1.77-.26 3.3-1.37 4.09-2.97l12.62-25.56c1.99-4.04 7.75-4.04 9.75 0Z" class="cls-chr61"/><path d="m1458.64 220.41 9.32 18.89a4.025 4.025 0 0 0 3.02 2.2l20.85 3.03c3.29.48 4.61 4.53 2.23 6.85l-15.09 14.71a4.02 4.02 0 0 0-1.16 3.56l3.56 20.77c.56 3.28-2.88 5.78-5.83 4.23l-18.65-9.8a3.993 3.993 0 0 0-3.74 0l-18.65 9.8c-2.95 1.55-6.39-.95-5.83-4.23l3.56-20.77c.22-1.3-.21-2.63-1.16-3.56l-15.09-14.71c-2.38-2.32-1.07-6.37 2.23-6.85l20.85-3.03a3.99 3.99 0 0 0 3.02-2.2l9.32-18.89c1.47-2.99 5.73-2.99 7.2 0Z" class="cls-chr62"/><path d="m1747.19 191.7 12.91 26.15a5.561 5.561 0 0 0 4.19 3.04l28.86 4.19c4.56.66 6.38 6.27 3.08 9.48l-20.88 20.36a5.563 5.563 0 0 0-1.6 4.92l4.93 28.75c.78 4.54-3.99 8.01-8.07 5.86l-25.82-13.57a5.56 5.56 0 0 0-5.17 0l-25.82 13.57c-4.08 2.14-8.85-1.32-8.07-5.86l4.93-28.75c.31-1.8-.29-3.64-1.6-4.92l-20.88-20.36c-3.3-3.22-1.48-8.82 3.08-9.48l28.86-4.19c1.81-.26 3.38-1.4 4.19-3.04l12.91-26.15c2.04-4.13 7.93-4.13 9.97 0ZM1725 385.12l8.19 16.59a3.536 3.536 0 0 0 2.66 1.93l18.31 2.66c2.89.42 4.05 3.98 1.95 6.02l-13.25 12.91c-.83.81-1.21 1.98-1.01 3.12l3.13 18.24c.49 2.88-2.53 5.08-5.12 3.72l-16.38-8.61a3.523 3.523 0 0 0-3.28 0l-16.38 8.61c-2.59 1.36-5.61-.84-5.12-3.72l3.13-18.24c.2-1.14-.18-2.31-1.01-3.12l-13.25-12.91c-2.09-2.04-.94-5.6 1.95-6.02l18.31-2.66c1.15-.17 2.14-.89 2.66-1.93l8.19-16.59c1.29-2.62 5.03-2.62 6.33 0Z" class="cls-chr61"/><path d="m1726.71 651.9 12.6 25.53c.79 1.6 2.32 2.71 4.09 2.97l28.17 4.09c4.45.65 6.23 6.12 3.01 9.26l-20.38 19.87a5.426 5.426 0 0 0-1.56 4.8l4.81 28.06c.76 4.43-3.89 7.81-7.87 5.72l-25.19-13.25a5.432 5.432 0 0 0-5.05 0l-25.2 13.25c-3.98 2.09-8.63-1.29-7.87-5.72l4.81-28.06c.3-1.76-.28-3.56-1.56-4.8l-20.38-19.87c-3.22-3.14-1.44-8.61 3.01-9.26l28.17-4.09c1.77-.26 3.3-1.37 4.09-2.97l12.6-25.53c1.99-4.03 7.74-4.03 9.73 0Z" class="cls-chr62"/><path d="m1691.36 900.71 8.87 17.98a3.815 3.815 0 0 0 2.88 2.09l19.84 2.88c3.13.46 4.39 4.31 2.12 6.52l-14.35 13.99c-.9.88-1.31 2.14-1.1 3.38l3.39 19.76c.54 3.12-2.74 5.5-5.54 4.03l-17.74-9.33a3.801 3.801 0 0 0-3.56 0l-17.74 9.33c-2.8 1.47-6.08-.91-5.54-4.03l3.39-19.76c.21-1.24-.2-2.5-1.1-3.38l-14.35-13.99c-2.27-2.21-1.02-6.06 2.12-6.52l19.84-2.88c1.24-.18 2.32-.96 2.88-2.09l8.87-17.98c1.4-2.84 5.45-2.84 6.85 0Z" class="cls-chr61"/><path d="m1703.37 1454.24 7.63 15.47c.48.97 1.41 1.64 2.48 1.8l17.07 2.48c2.7.39 3.77 3.71 1.82 5.61l-12.35 12.04c-.78.76-1.13 1.84-.95 2.91l2.92 17c.46 2.69-2.36 4.74-4.77 3.47l-15.27-8.03c-.96-.5-2.1-.5-3.06 0l-15.27 8.03c-2.41 1.27-5.23-.78-4.77-3.47l2.92-17c.18-1.07-.17-2.16-.95-2.91l-12.35-12.04c-1.95-1.9-.87-5.22 1.82-5.61l17.07-2.48c1.07-.16 2-.83 2.48-1.8l7.63-15.47c1.21-2.44 4.69-2.44 5.9 0ZM1753.42 1671.95l14.93 30.25c.94 1.9 2.75 3.21 4.84 3.52l33.39 4.85c5.28.77 7.38 7.25 3.56 10.97l-24.16 23.55a6.417 6.417 0 0 0-1.85 5.69l5.7 33.25c.9 5.25-4.61 9.26-9.33 6.78l-29.86-15.7a6.412 6.412 0 0 0-5.99 0l-29.86 15.7c-4.72 2.48-10.23-1.53-9.33-6.78l5.7-33.25a6.4 6.4 0 0 0-1.85-5.69l-24.16-23.55c-3.82-3.72-1.71-10.2 3.56-10.97l33.39-4.85c2.09-.3 3.91-1.62 4.84-3.52l14.93-30.25c2.36-4.78 9.18-4.78 11.54 0Z" class="cls-chr62"/><path d="m1721.53 1151.14 13.91 28.19c.87 1.77 2.56 3 4.51 3.28l31.11 4.52c4.92.71 6.88 6.76 3.32 10.22l-22.51 21.95a5.988 5.988 0 0 0-1.72 5.31l5.31 30.99c.84 4.9-4.3 8.63-8.7 6.32l-27.83-14.63a5.986 5.986 0 0 0-5.58 0l-27.83 14.63c-4.4 2.31-9.54-1.42-8.7-6.32l5.31-30.99c.33-1.94-.31-3.93-1.72-5.31l-22.51-21.95c-3.56-3.47-1.59-9.51 3.32-10.22l31.11-4.52a5.978 5.978 0 0 0 4.51-3.28l13.91-28.19c2.2-4.45 8.55-4.45 10.75 0ZM1514.46 1688.54l-12.93 26.2a5.596 5.596 0 0 1-4.19 3.05l-28.92 4.2c-4.57.66-6.39 6.28-3.09 9.5l20.93 20.4a5.573 5.573 0 0 1 1.6 4.93l-4.94 28.8c-.78 4.55 4 8.02 8.08 5.87l25.86-13.6a5.58 5.58 0 0 1 5.18 0l25.87 13.6c4.09 2.15 8.86-1.32 8.08-5.87l-4.94-28.8c-.31-1.81.29-3.65 1.6-4.93l20.93-20.4c3.31-3.22 1.48-8.84-3.09-9.5l-28.92-4.2a5.55 5.55 0 0 1-4.19-3.05l-12.93-26.2c-2.04-4.14-7.95-4.14-9.99 0Z" class="cls-chr61"/><path d="m1153.9 1622.07-18.96 38.41a8.18 8.18 0 0 1-6.15 4.47l-42.39 6.16c-6.7.97-9.37 9.2-4.53 13.93l30.68 29.9a8.198 8.198 0 0 1 2.35 7.23l-7.24 42.22c-1.14 6.67 5.86 11.76 11.85 8.61l37.92-19.93a8.17 8.17 0 0 1 7.6 0l37.92 19.93c5.99 3.15 12.99-1.94 11.85-8.61l-7.24-42.22a8.17 8.17 0 0 1 2.35-7.23l30.68-29.9c4.85-4.72 2.17-12.96-4.53-13.93l-42.39-6.16a8.18 8.18 0 0 1-6.15-4.47l-18.96-38.41c-3-6.07-11.65-6.07-14.65 0Z" class="cls-chr62"/><path d="m813.71 1642.2-12.61 25.56a5.418 5.418 0 0 1-4.09 2.97l-28.21 4.1c-4.46.65-6.24 6.12-3.01 9.27l20.41 19.9a5.417 5.417 0 0 1 1.56 4.81l-4.82 28.09c-.76 4.44 3.9 7.82 7.88 5.73l25.23-13.26c1.58-.83 3.47-.83 5.06 0l25.23 13.26c3.99 2.1 8.65-1.29 7.88-5.73l-4.82-28.09c-.3-1.76.28-3.56 1.56-4.81l20.41-19.9c3.23-3.14 1.45-8.62-3.01-9.27l-28.21-4.1a5.441 5.441 0 0 1-4.09-2.97l-12.62-25.56c-1.99-4.04-7.75-4.04-9.75 0ZM536.7 1674.57l-9.32 18.89a4.025 4.025 0 0 1-3.02 2.2l-20.85 3.03c-3.29.48-4.61 4.53-2.23 6.85l15.09 14.71a4.02 4.02 0 0 1 1.16 3.56l-3.56 20.77c-.56 3.28 2.88 5.78 5.83 4.23l18.65-9.8c1.17-.62 2.57-.62 3.74 0l18.65 9.8c2.95 1.55 6.39-.95 5.83-4.23l-3.56-20.77c-.22-1.3.21-2.63 1.16-3.56l15.09-14.71c2.38-2.32 1.07-6.37-2.23-6.85l-20.85-3.03a3.99 3.99 0 0 1-3.02-2.2l-9.32-18.89c-1.47-2.99-5.73-2.99-7.2 0Z" class="cls-chr61"/><path d="m248.14 1707.99-12.91 26.15a5.561 5.561 0 0 1-4.19 3.04l-28.86 4.19c-4.56.66-6.38 6.27-3.08 9.48l20.88 20.36a5.563 5.563 0 0 1 1.6 4.92l-4.93 28.75c-.78 4.54 3.99 8.01 8.07 5.86l25.82-13.57a5.56 5.56 0 0 1 5.17 0l25.82 13.57c4.08 2.14 8.85-1.32 8.07-5.86l-4.93-28.75c-.31-1.8.29-3.64 1.6-4.92l20.88-20.36c3.3-3.22 1.48-8.82-3.08-9.48l-28.86-4.19a5.561 5.561 0 0 1-4.19-3.04l-12.91-26.15c-2.04-4.13-7.93-4.13-9.97 0Z" class="cls-chr62"/><path d="m229.46 208.82-9.8 19.87a4.216 4.216 0 0 1-3.18 2.31l-21.92 3.19c-3.46.5-4.85 4.76-2.34 7.2l15.86 15.46c1 .97 1.45 2.37 1.21 3.74l-3.74 21.83c-.59 3.45 3.03 6.08 6.13 4.45l19.61-10.31c1.23-.65 2.7-.65 3.93 0l19.61 10.31c3.1 1.63 6.72-1 6.13-4.45l-3.74-21.83c-.23-1.37.22-2.77 1.21-3.74l15.86-15.46c2.51-2.44 1.12-6.7-2.34-7.2L250.03 231a4.216 4.216 0 0 1-3.18-2.31l-9.8-19.87c-1.55-3.14-6.02-3.14-7.57 0ZM258.05 500.27l-15.51 31.43a6.653 6.653 0 0 1-5.03 3.65l-34.68 5.04c-5.48.8-7.67 7.53-3.7 11.4l25.09 24.46a6.693 6.693 0 0 1 1.92 5.91l-5.92 34.54c-.94 5.46 4.79 9.62 9.69 7.04l31.02-16.31a6.704 6.704 0 0 1 6.22 0l31.02 16.31c4.9 2.58 10.63-1.59 9.69-7.04l-5.92-34.54c-.37-2.17.35-4.38 1.92-5.91l25.09-24.46c3.97-3.86 1.78-10.6-3.7-11.4l-34.68-5.04a6.676 6.676 0 0 1-5.03-3.65l-15.51-31.43c-2.45-4.97-9.53-4.97-11.98 0Z" class="cls-chr61"/><path d="m272.14 795.87-8.87 17.98a3.815 3.815 0 0 1-2.88 2.09l-19.84 2.88c-3.13.46-4.39 4.31-2.12 6.52l14.35 13.99c.9.88 1.31 2.14 1.1 3.38l-3.39 19.76c-.54 3.12 2.74 5.5 5.54 4.03l17.74-9.33c1.11-.59 2.44-.59 3.56 0l17.74 9.33c2.8 1.47 6.08-.91 5.54-4.03l-3.39-19.76c-.21-1.24.2-2.5 1.1-3.38l14.35-13.99c2.27-2.21 1.02-6.06-2.12-6.52l-19.84-2.88a3.832 3.832 0 0 1-2.88-2.09l-8.87-17.98c-1.4-2.84-5.45-2.84-6.85 0ZM243.59 1470.57l-8.48 17.19a3.64 3.64 0 0 1-2.75 2l-18.97 2.76c-3 .44-4.19 4.12-2.02 6.23l13.72 13.38c.86.84 1.25 2.05 1.05 3.23l-3.24 18.89c-.51 2.98 2.62 5.26 5.3 3.85l16.96-8.92a3.65 3.65 0 0 1 3.4 0l16.96 8.92c2.68 1.41 5.81-.87 5.3-3.85l-3.24-18.89c-.2-1.19.19-2.39 1.05-3.23l13.72-13.38c2.17-2.11.97-5.8-2.02-6.23l-18.97-2.76a3.64 3.64 0 0 1-2.75-2l-8.48-17.19c-1.34-2.72-5.21-2.72-6.55 0Z" class="cls-chr62"/><path d="m267.25 1075.38-20.19 40.91a8.701 8.701 0 0 1-6.55 4.76l-45.15 6.56c-7.13 1.04-9.98 9.8-4.82 14.83l32.67 31.85c2.05 2 2.99 4.88 2.5 7.7l-7.71 44.97c-1.22 7.1 6.24 12.52 12.62 9.17L271 1214.9a8.7 8.7 0 0 1 8.09 0l40.38 21.23c6.38 3.35 13.84-2.06 12.62-9.17l-7.71-44.97c-.48-2.82.45-5.7 2.5-7.7l32.67-31.85c5.16-5.03 2.31-13.8-4.82-14.83l-45.15-6.56a8.701 8.701 0 0 1-6.55-4.76l-20.19-40.91c-3.19-6.46-12.41-6.46-15.6 0Z" class="cls-chr61"/><g transform="translate(400, 400)scale(4)" fill="none"><svg width="300" height="300"><style>.background-color{ fill: #fff; }.dot-color{ fill: #0e372d; }.corners-square-color-0-0{ fill: #0e372d; }.corners-dot-color-0-0{ fill: #0e372d; }.corners-square-color-1-0{ fill: #0e372d; }.corners-dot-color-1-0{ fill: #0e372d; }.corners-square-color-0-1{ fill: #0e372d; }.corners-dot-color-0-1{ fill: #0e372d; }</style><defs/><g class="dot-color"><path d="M 5 115v 10h 5a 5 5, 0, 0, 0, 0 -10" transform="rotate(-90,10,120)"/><path d="M 5 125v 10h 10a 10 10, 0, 0, 0, -10 -10" transform="rotate(180,10,130)"/><path d="M 5 155v 10h 5a 5 5, 0, 0, 0, 0 -10" transform="rotate(-90,10,160)"/><path d="M 5 165v 10h 5a 5 5, 0, 0, 0, 0 -10" transform="rotate(90,10,170)"/><path d="M 5 185v 10h 10a 10 10, 0, 0, 0, -10 -10" transform="rotate(-90,10,190)"/><path d="M 5 195v 10h 10a 10 10, 0, 0, 0, -10 -10" transform="rotate(180,10,200)"/><rect x="15" y="125" width="10" height="10" transform="rotate(0,20,130)"/><path d="M 15 185v 10h 10a 10 10, 0, 0, 0, -10 -10" transform="rotate(0,20,190)"/><path d="M 15 195v 10h 10a 10 10, 0, 0, 0, -10 -10" transform="rotate(90,20,200)"/><path d="M 25 95v 10h 10a 10 10, 0, 0, 0, -10 -10" transform="rotate(-90,30,100)"/><path d="M 25 105v 10h 10a 10 10, 0, 0, 0, -10 -10" transform="rotate(180,30,110)"/><path d="M 25 125v 10h 10a 10 10, 0, 0, 0, -10 -10" transform="rotate(0,30,130)"/><rect x="25" y="135" width="10" height="10" transform="rotate(0,30,140)"/><path d="M 25 145v 10h 5a 5 5, 0, 0, 0, 0 -10" transform="rotate(90,30,150)"/><path d="M 25 175v 10h 5a 5 5, 0, 0, 0, 0 -10" transform="rotate(180,30,180)"/><path d="M 35 85v 10h 5a 5 5, 0, 0, 0, 0 -10" transform="rotate(-90,40,90)"/><rect x="35" y="95" width="10" height="10" transform="rotate(0,40,100)"/><path d="M 35 105v 10h 10a 10 10, 0, 0, 0, -10 -10" transform="rotate(90,40,110)"/><path d="M 35 165v 10h 5a 5 5, 0, 0, 0, 0 -10" transform="rotate(-90,40,170)"/><rect x="35" y="175" width="10" height="10" transform="rotate(0,40,180)"/><rect x="35" y="185" width="10" height="10" transform="rotate(0,40,190)"/><path d="M 35 195v 10h 5a 5 5, 0, 0, 0, 0 -10" transform="rotate(90,40,200)"/><circle cx="50" cy="120" r="5" transform="rotate(0,50,120)"/><circle cx="50" cy="140" r="5" transform="rotate(0,50,140)"/><circle cx="50" cy="160" r="5" transform="rotate(0,50,160)"/><path d="M 45 175v 10h 5a 5 5, 0, 0, 0, 0 -10" transform="rotate(0,50,180)"/><path d="M 45 205v 10h 5a 5 5, 0, 0, 0, 0 -10" transform="rotate(180,50,210)"/><path d="M 55 85v 10h 5a 5 5, 0, 0, 0, 0 -10" transform="rotate(180,60,90)"/><path d="M 55 105v 10h 5a 5 5, 0, 0, 0, 0 -10" transform="rotate(180,60,110)"/><path d="M 55 145v 10h 5a 5 5, 0, 0, 0, 0 -10" transform="rotate(180,60,150)"/><path d="M 55 165v 10h 5a 5 5, 0, 0, 0, 0 -10" transform="rotate(180,60,170)"/><rect x="55" y="205" width="10" height="10" transform="rotate(0,60,210)"/><rect x="65" y="85" width="10" height="10" transform="rotate(0,70,90)"/><path d="M 65 105v 10h 5a 5 5, 0, 0, 0, 0 -10" transform="rotate(0,70,110)"/><path d="M 65 125v 10h 5a 5 5, 0, 0, 0, 0 -10" transform="rotate(180,70,130)"/><path d="M 65 145v 10h 5a 5 5, 0, 0, 0, 0 -10" transform="rotate(0,70,150)"/><rect x="65" y="165" width="10" height="10" transform="rotate(0,70,170)"/><path d="M 65 185v 10h 5a 5 5, 0, 0, 0, 0 -10" transform="rotate(180,70,190)"/><rect x="65" y="205" width="10" height="10" transform="rotate(0,70,210)"/><path d="M 75 85v 10h 10a 10 10, 0, 0, 0, -10 -10" transform="rotate(0,80,90)"/><path d="M 75 95v 10h 10a 10 10, 0, 0, 0, -10 -10" transform="rotate(180,80,100)"/><path d="M 75 115v 10h 10a 10 10, 0, 0, 0, -10 -10" transform="rotate(-90,80,120)"/><rect x="75" y="125" width="10" height="10" transform="rotate(0,80,130)"/><path d="M 75 135v 10h 10a 10 10, 0, 0, 0, -10 -10" transform="rotate(180,80,140)"/><path d="M 75 155v 10h 10a 10 10, 0, 0, 0, -10 -10" transform="rotate(-90,80,160)"/><rect x="75" y="165" width="10" height="10" transform="rotate(0,80,170)"/><rect x="75" y="185" width="10" height="10" transform="rotate(0,80,190)"/><rect x="75" y="205" width="10" height="10" transform="rotate(0,80,210)"/><path d="M 85 15v 10h 10a 10 10, 0, 0, 0, -10 -10" transform="rotate(-90,90,20)"/><path d="M 85 25v 10h 10a 10 10, 0, 0, 0, -10 -10" transform="rotate(180,90,30)"/><circle cx="90" cy="70" r="5" transform="rotate(0,90,70)"/><rect x="85" y="95" width="10" height="10" transform="rotate(0,90,100)"/><rect x="85" y="115" width="10" height="10" transform="rotate(0,90,120)"/><rect x="85" y="125" width="10" height="10" transform="rotate(0,90,130)"/><rect x="85" y="135" width="10" height="10" transform="rotate(0,90,140)"/><rect x="85" y="145" width="10" height="10" transform="rotate(0,90,150)"/><rect x="85" y="155" width="10" height="10" transform="rotate(0,90,160)"/><rect x="85" y="165" width="10" height="10" transform="rotate(0,90,170)"/><rect x="85" y="175" width="10" height="10" transform="rotate(0,90,180)"/><rect x="85" y="185" width="10" height="10" transform="rotate(0,90,190)"/><rect x="85" y="195" width="10" height="10" transform="rotate(0,90,200)"/><path d="M 85 205v 10h 10a 10 10, 0, 0, 0, -10 -10" transform="rotate(90,90,210)"/><path d="M 85 225v 10h 5a 5 5, 0, 0, 0, 0 -10" transform="rotate(-90,90,230)"/><path d="M 85 235v 10h 10a 10 10, 0, 0, 0, -10 -10" transform="rotate(180,90,240)"/><path d="M 85 255v 10h 5a 5 5, 0, 0, 0, 0 -10" transform="rotate(180,90,260)"/><path d="M 95 5v 10h 5a 5 5, 0, 0, 0, 0 -10" transform="rotate(-90,100,10)"/><rect x="95" y="15" width="10" height="10" transform="rotate(0,100,20)"/><rect x="95" y="25" width="10" height="10" transform="rotate(0,100,30)"/><rect x="95" y="35" width="10" height="10" transform="rotate(0,100,40)"/><rect x="95" y="45" width="10" height="10" transform="rotate(0,100,50)"/><path d="M 95 55v 10h 5a 5 5, 0, 0, 0, 0 -10" transform="rotate(90,100,60)"/><circle cx="100" cy="80" r="5" transform="rotate(0,100,80)"/><rect x="95" y="95" width="10" height="10" transform="rotate(0,100,100)"/><rect x="95" y="105" width="10" height="10" transform="rotate(0,100,110)"/><rect x="95" y="115" width="10" height="10" transform="rotate(0,100,120)"/><rect x="95" y="165" width="10" height="10" transform="rotate(0,100,170)"/><rect x="95" y="185" width="10" height="10" transform="rotate(0,100,190)"/><path d="M 95 215v 10h 5a 5 5, 0, 0, 0, 0 -10" transform="rotate(180,100,220)"/><rect x="95" y="235" width="10" height="10" transform="rotate(0,100,240)"/><path d="M 95 255v 10h 10a 10 10, 0, 0, 0, -10 -10" transform="rotate(0,100,260)"/><rect x="95" y="265" width="10" height="10" transform="rotate(0,100,270)"/><rect x="95" y="275" width="10" height="10" transform="rotate(0,100,280)"/><path d="M 95 285v 10h 10a 10 10, 0, 0, 0, -10 -10" transform="rotate(180,100,290)"/><path d="M 105 35v 10h 10a 10 10, 0, 0, 0, -10 -10" transform="rotate(0,110,40)"/><path d="M 105 45v 10h 10a 10 10, 0, 0, 0, -10 -10" transform="rotate(90,110,50)"/><circle cx="110" cy="70" r="5" transform="rotate(0,110,70)"/><path d="M 105 95v 10h 5a 5 5, 0, 0, 0, 0 -10" transform="rotate(0,110,100)"/><rect x="105" y="115" width="10" height="10" transform="rotate(0,110,120)"/><path d="M 105 155v 10h 5a 5 5, 0, 0, 0, 0 -10" transform="rotate(-90,110,160)"/><rect x="105" y="165" width="10" height="10" transform="rotate(0,110,170)"/><rect x="105" y="175" width="10" height="10" transform="rotate(0,110,180)"/><rect x="105" y="185" width="10" height="10" transform="rotate(0,110,190)"/><rect x="105" y="195" width="10" height="10" transform="rotate(0,110,200)"/><rect x="105" y="205" width="10" height="10" transform="rotate(0,110,210)"/><path d="M 105 215v 10h 10a 10 10, 0, 0, 0, -10 -10" transform="rotate(90,110,220)"/><path d="M 105 235v 10h 5a 5 5, 0, 0, 0, 0 -10" transform="rotate(0,110,240)"/><path d="M 105 285v 10h 5a 5 5, 0, 0, 0, 0 -10" transform="rotate(0,110,290)"/><circle cx="120" cy="20" r="5" transform="rotate(0,120,20)"/><circle cx="120" cy="80" r="5" transform="rotate(0,120,80)"/><path d="M 115 105v 10h 10a 10 10, 0, 0, 0, -10 -10" transform="rotate(-90,120,110)"/><rect x="115" y="115" width="10" height="10" transform="rotate(0,120,120)"/><rect x="115" y="125" width="10" height="10" transform="rotate(0,120,130)"/><path d="M 115 135v 10h 10a 10 10, 0, 0, 0, -10 -10" transform="rotate(180,120,140)"/><path d="M 115 185v 10h 10a 10 10, 0, 0, 0, -10 -10" transform="rotate(0,120,190)"/><rect x="115" y="195" width="10" height="10" transform="rotate(0,120,200)"/><rect x="115" y="205" width="10" height="10" transform="rotate(0,120,210)"/><path d="M 115 225v 10h 5a 5 5, 0, 0, 0, 0 -10" transform="rotate(180,120,230)"/><path d="M 115 255v 10h 5a 5 5, 0, 0, 0, 0 -10" transform="rotate(180,120,260)"/><path d="M 125 25v 10h 10a 10 10, 0, 0, 0, -10 -10" transform="rotate(-90,130,30)"/><path d="M 125 35v 10h 5a 5 5, 0, 0, 0, 0 -10" transform="rotate(90,130,40)"/><path d="M 125 55v 10h 10a 10 10, 0, 0, 0, -10 -10" transform="rotate(-90,130,60)"/><path d="M 125 65v 10h 5a 5 5, 0, 0, 0, 0 -10" transform="rotate(90,130,70)"/><path d="M 125 85v 10h 5a 5 5, 0, 0, 0, 0 -10" transform="rotate(-90,130,90)"/><rect x="125" y="95" width="10" height="10" transform="rotate(0,130,100)"/><path d="M 125 105v 10h 10a 10 10, 0, 0, 0, -10 -10" transform="rotate(90,130,110)"/><rect x="125" y="135" width="10" height="10" transform="rotate(0,130,140)"/><path d="M 125 145v 10h 10a 10 10, 0, 0, 0, -10 -10" transform="rotate(180,130,150)"/><rect x="125" y="205" width="10" height="10" transform="rotate(0,130,210)"/><rect x="125" y="215" width="10" height="10" transform="rotate(0,130,220)"/><rect x="125" y="225" width="10" height="10" transform="rotate(0,130,230)"/><rect x="125" y="255" width="10" height="10" transform="rotate(0,130,260)"/><circle cx="130" cy="280" r="5" transform="rotate(0,130,280)"/><circle cx="140" cy="10" r="5" transform="rotate(0,140,10)"/><path d="M 135 25v 10h 5a 5 5, 0, 0, 0, 0 -10" transform="rotate(0,140,30)"/><rect x="135" y="55" width="10" height="10" transform="rotate(0,140,60)"/><rect x="135" y="95" width="10" height="10" transform="rotate(0,140,100)"/><path d="M 135 125v 10h 10a 10 10, 0, 0, 0, -10 -10" transform="rotate(-90,140,130)"/><rect x="135" y="135" width="10" height="10" transform="rotate(0,140,140)"/><rect x="135" y="145" width="10" height="10" transform="rotate(0,140,150)"/><path d="M 135 165v 10h 10a 10 10, 0, 0, 0, -10 -10" transform="rotate(-90,140,170)"/><rect x="135" y="175" width="10" height="10" transform="rotate(0,140,180)"/><rect x="135" y="185" width="10" height="10" transform="rotate(0,140,190)"/><rect x="135" y="195" width="10" height="10" transform="rotate(0,140,200)"/><path d="M 135 205v 10h 10a 10 10, 0, 0, 0, -10 -10" transform="rotate(90,140,210)"/><path d="M 135 225v 10h 5a 5 5, 0, 0, 0, 0 -10" transform="rotate(0,140,230)"/><rect x="135" y="255" width="10" height="10" transform="rotate(0,140,260)"/><path d="M 135 285v 10h 5a 5 5, 0, 0, 0, 0 -10" transform="rotate(180,140,290)"/><path d="M 145 45v 10h 10a 10 10, 0, 0, 0, -10 -10" transform="rotate(-90,150,50)"/><rect x="145" y="55" width="10" height="10" transform="rotate(0,150,60)"/><path d="M 145 65v 10h 5a 5 5, 0, 0, 0, 0 -10" transform="rotate(90,150,70)"/><path d="M 145 95v 10h 10a 10 10, 0, 0, 0, -10 -10" transform="rotate(0,150,100)"/><path d="M 145 105v 10h 5a 5 5, 0, 0, 0, 0 -10" transform="rotate(90,150,110)"/><path d="M 145 125v 10h 10a 10 10, 0, 0, 0, -10 -10" transform="rotate(0,150,130)"/><rect x="145" y="135" width="10" height="10" transform="rotate(0,150,140)"/><rect x="145" y="145" width="10" height="10" transform="rotate(0,150,150)"/><rect x="145" y="155" width="10" height="10" transform="rotate(0,150,160)"/><path d="M 145 165v 10h 10a 10 10, 0, 0, 0, -10 -10" transform="rotate(90,150,170)"/><path d="M 145 195v 10h 5a 5 5, 0, 0, 0, 0 -10" transform="rotate(0,150,200)"/><circle cx="150" cy="220" r="5" transform="rotate(0,150,220)"/><rect x="145" y="255" width="10" height="10" transform="rotate(0,150,260)"/><rect x="145" y="265" width="10" height="10" transform="rotate(0,150,270)"/><rect x="145" y="275" width="10" height="10" transform="rotate(0,150,280)"/><path d="M 145 285v 10h 10a 10 10, 0, 0, 0, -10 -10" transform="rotate(90,150,290)"/><circle cx="160" cy="20" r="5" transform="rotate(0,160,20)"/><path d="M 155 35v 10h 5a 5 5, 0, 0, 0, 0 -10" transform="rotate(-90,160,40)"/><rect x="155" y="45" width="10" height="10" transform="rotate(0,160,50)"/><path d="M 155 55v 10h 10a 10 10, 0, 0, 0, -10 -10" transform="rotate(90,160,60)"/><path d="M 155 75v 10h 5a 5 5, 0, 0, 0, 0 -10" transform="rotate(-90,160,80)"/><path d="M 155 85v 10h 10a 10 10, 0, 0, 0, -10 -10" transform="rotate(180,160,90)"/><path d="M 155 155v 10h 5a 5 5, 0, 0, 0, 0 -10" transform="rotate(0,160,160)"/><path d="M 155 175v 10h 5a 5 5, 0, 0, 0, 0 -10" transform="rotate(180,160,180)"/><path d="M 155 205v 10h 5a 5 5, 0, 0, 0, 0 -10" transform="rotate(180,160,210)"/><path d="M 155 255v 10h 5a 5 5, 0, 0, 0, 0 -10" transform="rotate(0,160,260)"/><path d="M 155 275v 10h 5a 5 5, 0, 0, 0, 0 -10" transform="rotate(0,160,280)"/><circle cx="170" cy="10" r="5" transform="rotate(0,170,10)"/><path d="M 165 25v 10h 5a 5 5, 0, 0, 0, 0 -10" transform="rotate(180,170,30)"/><circle cx="170" cy="70" r="5" transform="rotate(0,170,70)"/><rect x="165" y="85" width="10" height="10" transform="rotate(0,170,90)"/><path d="M 165 105v 10h 5a 5 5, 0, 0, 0, 0 -10" transform="rotate(180,170,110)"/><path d="M 165 125v 10h 10a 10 10, 0, 0, 0, -10 -10" transform="rotate(-90,170,130)"/><path d="M 165 135v 10h 5a 5 5, 0, 0, 0, 0 -10" transform="rotate(90,170,140)"/><path d="M 165 175v 10h 5a 5 5, 0, 0, 0, 0 -10" transform="rotate(0,170,180)"/><rect x="165" y="205" width="10" height="10" transform="rotate(0,170,210)"/><circle cx="170" cy="230" r="5" transform="rotate(0,170,230)"/><circle cx="170" cy="250" r="5" transform="rotate(0,170,250)"/><path d="M 175 25v 10h 10a 10 10, 0, 0, 0, -10 -10" transform="rotate(0,180,30)"/><rect x="175" y="35" width="10" height="10" transform="rotate(0,180,40)"/><rect x="175" y="45" width="10" height="10" transform="rotate(0,180,50)"/><path d="M 175 55v 10h 10a 10 10, 0, 0, 0, -10 -10" transform="rotate(180,180,60)"/><path d="M 175 75v 10h 5a 5 5, 0, 0, 0, 0 -10" transform="rotate(-90,180,80)"/><path d="M 175 85v 10h 10a 10 10, 0, 0, 0, -10 -10" transform="rotate(90,180,90)"/><path d="M 175 105v 10h 5a 5 5, 0, 0, 0, 0 -10" transform="rotate(0,180,110)"/><rect x="175" y="125" width="10" height="10" transform="rotate(0,180,130)"/><path d="M 175 195v 10h 10a 10 10, 0, 0, 0, -10 -10" transform="rotate(-90,180,200)"/><rect x="175" y="205" width="10" height="10" transform="rotate(0,180,210)"/><path d="M 175 215v 10h 5a 5 5, 0, 0, 0, 0 -10" transform="rotate(90,180,220)"/><path d="M 175 235v 10h 5a 5 5, 0, 0, 0, 0 -10" transform="rotate(180,180,240)"/><path d="M 175 255v 10h 10a 10 10, 0, 0, 0, -10 -10" transform="rotate(-90,180,260)"/><path d="M 175 265v 10h 5a 5 5, 0, 0, 0, 0 -10" transform="rotate(90,180,270)"/><path d="M 175 285v 10h 5a 5 5, 0, 0, 0, 0 -10" transform="rotate(180,180,290)"/><path d="M 185 5v 10h 5a 5 5, 0, 0, 0, 0 -10" transform="rotate(-90,190,10)"/><path d="M 185 15v 10h 5a 5 5, 0, 0, 0, 0 -10" transform="rotate(90,190,20)"/><path d="M 185 35v 10h 10a 10 10, 0, 0, 0, -10 -10" transform="rotate(0,190,40)"/><rect x="185" y="45" width="10" height="10" transform="rotate(0,190,50)"/><rect x="185" y="55" width="10" height="10" transform="rotate(0,190,60)"/><path d="M 185 65v 10h 5a 5 5, 0, 0, 0, 0 -10" transform="rotate(90,190,70)"/><path d="M 185 115v 10h 5a 5 5, 0, 0, 0, 0 -10" transform="rotate(-90,190,120)"/><rect x="185" y="125" width="10" height="10" transform="rotate(0,190,130)"/><path d="M 185 145v 10h 5a 5 5, 0, 0, 0, 0 -10" transform="rotate(-90,190,150)"/><path d="M 185 155v 10h 5a 5 5, 0, 0, 0, 0 -10" transform="rotate(90,190,160)"/><path d="M 185 185v 10h 5a 5 5, 0, 0, 0, 0 -10" transform="rotate(-90,190,190)"/><rect x="185" y="195" width="10" height="10" transform="rotate(0,190,200)"/><rect x="185" y="205" width="10" height="10" transform="rotate(0,190,210)"/><rect x="185" y="235" width="10" height="10" transform="rotate(0,190,240)"/><rect x="185" y="245" width="10" height="10" transform="rotate(0,190,250)"/><rect x="185" y="255" width="10" height="10" transform="rotate(0,190,260)"/><rect x="185" y="285" width="10" height="10" transform="rotate(0,190,290)"/><circle cx="200" cy="30" r="5" transform="rotate(0,200,30)"/><path d="M 195 55v 10h 5a 5 5, 0, 0, 0, 0 -10" transform="rotate(0,200,60)"/><path d="M 195 95v 10h 10a 10 10, 0, 0, 0, -10 -10" transform="rotate(-90,200,100)"/><path d="M 195 105v 10h 5a 5 5, 0, 0, 0, 0 -10" transform="rotate(90,200,110)"/><rect x="195" y="125" width="10" height="10" transform="rotate(0,200,130)"/><path d="M 195 135v 10h 10a 10 10, 0, 0, 0, -10 -10" transform="rotate(180,200,140)"/><rect x="195" y="195" width="10" height="10" transform="rotate(0,200,200)"/><rect x="195" y="205" width="10" height="10" transform="rotate(0,200,210)"/><rect x="195" y="215" width="10" height="10" transform="rotate(0,200,220)"/><rect x="195" y="225" width="10" height="10" transform="rotate(0,200,230)"/><rect x="195" y="235" width="10" height="10" transform="rotate(0,200,240)"/><path d="M 195 255v 10h 5a 5 5, 0, 0, 0, 0 -10" transform="rotate(0,200,260)"/><path d="M 195 285v 10h 5a 5 5, 0, 0, 0, 0 -10" transform="rotate(0,200,290)"/><path d="M 205 5v 10h 5a 5 5, 0, 0, 0, 0 -10" transform="rotate(-90,210,10)"/><path d="M 205 15v 10h 5a 5 5, 0, 0, 0, 0 -10" transform="rotate(90,210,20)"/><circle cx="210" cy="40" r="5" transform="rotate(0,210,40)"/><path d="M 205 65v 10h 5a 5 5, 0, 0, 0, 0 -10" transform="rotate(-90,210,70)"/><path d="M 205 75v 10h 5a 5 5, 0, 0, 0, 0 -10" transform="rotate(90,210,80)"/><path d="M 205 95v 10h 5a 5 5, 0, 0, 0, 0 -10" transform="rotate(0,210,100)"/><path d="M 205 125v 10h 10a 10 10, 0, 0, 0, -10 -10" transform="rotate(0,210,130)"/><rect x="205" y="135" width="10" height="10" transform="rotate(0,210,140)"/><path d="M 205 155v 10h 10a 10 10, 0, 0, 0, -10 -10" transform="rotate(-90,210,160)"/><path d="M 205 165v 10h 10a 10 10, 0, 0, 0, -10 -10" transform="rotate(180,210,170)"/><path d="M 205 185v 10h 5a 5 5, 0, 0, 0, 0 -10" transform="rotate(-90,210,190)"/><rect x="205" y="195" width="10" height="10" transform="rotate(0,210,200)"/><rect x="205" y="205" width="10" height="10" transform="rotate(0,210,210)"/><rect x="205" y="215" width="10" height="10" transform="rotate(0,210,220)"/><rect x="205" y="225" width="10" height="10" transform="rotate(0,210,230)"/><rect x="205" y="235" width="10" height="10" transform="rotate(0,210,240)"/><path d="M 205 245v 10h 10a 10 10, 0, 0, 0, -10 -10" transform="rotate(180,210,250)"/><circle cx="210" cy="280" r="5" transform="rotate(0,210,280)"/><circle cx="220" cy="90" r="5" transform="rotate(0,220,90)"/><path d="M 215 105v 10h 5a 5 5, 0, 0, 0, 0 -10" transform="rotate(180,220,110)"/><rect x="215" y="135" width="10" height="10" transform="rotate(0,220,140)"/><rect x="215" y="155" width="10" height="10" transform="rotate(0,220,160)"/><path d="M 215 165v 10h 10a 10 10, 0, 0, 0, -10 -10" transform="rotate(90,220,170)"/><rect x="215" y="205" width="10" height="10" transform="rotate(0,220,210)"/><rect x="215" y="245" width="10" height="10" transform="rotate(0,220,250)"/><path d="M 215 255v 10h 10a 10 10, 0, 0, 0, -10 -10" transform="rotate(180,220,260)"/><path d="M 215 285v 10h 5a 5 5, 0, 0, 0, 0 -10" transform="rotate(180,220,290)"/><rect x="225" y="105" width="10" height="10" transform="rotate(0,230,110)"/><path d="M 225 115v 10h 5a 5 5, 0, 0, 0, 0 -10" transform="rotate(90,230,120)"/><rect x="225" y="135" width="10" height="10" transform="rotate(0,230,140)"/><rect x="225" y="155" width="10" height="10" transform="rotate(0,230,160)"/><path d="M 225 175v 10h 5a 5 5, 0, 0, 0, 0 -10" transform="rotate(-90,230,180)"/><path d="M 225 185v 10h 10a 10 10, 0, 0, 0, -10 -10" transform="rotate(180,230,190)"/><rect x="225" y="205" width="10" height="10" transform="rotate(0,230,210)"/><circle cx="230" cy="230" r="5" transform="rotate(0,230,230)"/><rect x="225" y="245" width="10" height="10" transform="rotate(0,230,250)"/><rect x="225" y="255" width="10" height="10" transform="rotate(0,230,260)"/><path d="M 225 265v 10h 5a 5 5, 0, 0, 0, 0 -10" transform="rotate(90,230,270)"/><rect x="225" y="285" width="10" height="10" transform="rotate(0,230,290)"/><path d="M 235 105v 10h 5a 5 5, 0, 0, 0, 0 -10" transform="rotate(0,240,110)"/><path d="M 235 125v 10h 10a 10 10, 0, 0, 0, -10 -10" transform="rotate(-90,240,130)"/><rect x="235" y="135" width="10" height="10" transform="rotate(0,240,140)"/><rect x="235" y="145" width="10" height="10" transform="rotate(0,240,150)"/><rect x="235" y="155" width="10" height="10" transform="rotate(0,240,160)"/><rect x="235" y="185" width="10" height="10" transform="rotate(0,240,190)"/><rect x="235" y="195" width="10" height="10" transform="rotate(0,240,200)"/><rect x="235" y="205" width="10" height="10" transform="rotate(0,240,210)"/><rect x="235" y="245" width="10" height="10" transform="rotate(0,240,250)"/><path d="M 235 255v 10h 10a 10 10, 0, 0, 0, -10 -10" transform="rotate(90,240,260)"/><path d="M 235 275v 10h 5a 5 5, 0, 0, 0, 0 -10" transform="rotate(-90,240,280)"/><path d="M 235 285v 10h 10a 10 10, 0, 0, 0, -10 -10" transform="rotate(90,240,290)"/><path d="M 245 125v 10h 5a 5 5, 0, 0, 0, 0 -10" transform="rotate(0,250,130)"/><rect x="245" y="145" width="10" height="10" transform="rotate(0,250,150)"/><rect x="245" y="155" width="10" height="10" transform="rotate(0,250,160)"/><rect x="245" y="165" width="10" height="10" transform="rotate(0,250,170)"/><rect x="245" y="175" width="10" height="10" transform="rotate(0,250,180)"/><rect x="245" y="185" width="10" height="10" transform="rotate(0,250,190)"/><rect x="245" y="195" width="10" height="10" transform="rotate(0,250,200)"/><rect x="245" y="205" width="10" height="10" transform="rotate(0,250,210)"/><rect x="245" y="215" width="10" height="10" transform="rotate(0,250,220)"/><rect x="245" y="225" width="10" height="10" transform="rotate(0,250,230)"/><rect x="245" y="235" width="10" height="10" transform="rotate(0,250,240)"/><rect x="245" y="245" width="10" height="10" transform="rotate(0,250,250)"/><path d="M 255 145v 10h 5a 5 5, 0, 0, 0, 0 -10" transform="rotate(0,260,150)"/><rect x="255" y="165" width="10" height="10" transform="rotate(0,260,170)"/><rect x="255" y="175" width="10" height="10" transform="rotate(0,260,180)"/><rect x="255" y="185" width="10" height="10" transform="rotate(0,260,190)"/><rect x="255" y="195" width="10" height="10" transform="rotate(0,260,200)"/><path d="M 255 205v 10h 10a 10 10, 0, 0, 0, -10 -10" transform="rotate(90,260,210)"/><path d="M 255 235v 10h 10a 10 10, 0, 0, 0, -10 -10" transform="rotate(0,260,240)"/><rect x="255" y="245" width="10" height="10" transform="rotate(0,260,250)"/><path d="M 255 275v 10h 5a 5 5, 0, 0, 0, 0 -10" transform="rotate(180,260,280)"/><path d="M 265 85v 10h 5a 5 5, 0, 0, 0, 0 -10" transform="rotate(180,270,90)"/><path d="M 265 105v 10h 5a 5 5, 0, 0, 0, 0 -10" transform="rotate(180,270,110)"/><rect x="265" y="165" width="10" height="10" transform="rotate(0,270,170)"/><circle cx="270" cy="220" r="5" transform="rotate(0,270,220)"/><path d="M 265 245v 10h 10a 10 10, 0, 0, 0, -10 -10" transform="rotate(0,270,250)"/><rect x="265" y="255" width="10" height="10" transform="rotate(0,270,260)"/><rect x="265" y="265" width="10" height="10" transform="rotate(0,270,270)"/><rect x="265" y="275" width="10" height="10" transform="rotate(0,270,280)"/><path d="M 265 285v 10h 5a 5 5, 0, 0, 0, 0 -10" transform="rotate(90,270,290)"/><path d="M 275 85v 10h 5a 5 5, 0, 0, 0, 0 -10" transform="rotate(0,280,90)"/><path d="M 275 105v 10h 5a 5 5, 0, 0, 0, 0 -10" transform="rotate(0,280,110)"/><circle cx="280" cy="130" r="5" transform="rotate(0,280,130)"/><path d="M 275 145v 10h 5a 5 5, 0, 0, 0, 0 -10" transform="rotate(-90,280,150)"/><rect x="275" y="155" width="10" height="10" transform="rotate(0,280,160)"/><rect x="275" y="165" width="10" height="10" transform="rotate(0,280,170)"/><path d="M 275 195v 10h 10a 10 10, 0, 0, 0, -10 -10" transform="rotate(-90,280,200)"/><path d="M 275 205v 10h 10a 10 10, 0, 0, 0, -10 -10" transform="rotate(180,280,210)"/><circle cx="290" cy="140" r="5" transform="rotate(0,290,140)"/><path d="M 285 165v 10h 5a 5 5, 0, 0, 0, 0 -10" transform="rotate(0,290,170)"/><path d="M 285 195v 10h 10a 10 10, 0, 0, 0, -10 -10" transform="rotate(0,290,200)"/><path d="M 285 205v 10h 10a 10 10, 0, 0, 0, -10 -10" transform="rotate(90,290,210)"/><path d="M 285 225v 10h 5a 5 5, 0, 0, 0, 0 -10" transform="rotate(-90,290,230)"/><rect x="285" y="235" width="10" height="10" transform="rotate(0,290,240)"/><path d="M 285 245v 10h 5a 5 5, 0, 0, 0, 0 -10" transform="rotate(90,290,250)"/><circle cx="290" cy="290" r="5" transform="rotate(0,290,290)"/></g><g class="corners-square-color-0-0"><path clip-rule="evenodd" d="M 5 30v 20a 25 25, 0, 0, 0, 25 25h 20a 25 25, 0, 0, 0, 25 -25v -20a 25 25, 0, 0, 0, -25 -25h -20a 25 25, 0, 0, 0, -25 25M 30 15h 20a 15 15, 0, 0, 1, 15 15v 20a 15 15, 0, 0, 1, -15 15h -20a 15 15, 0, 0, 1, -15 -15v -20a 15 15, 0, 0, 1, 15 -15" transform="rotate(0,40,40)"/></g><g class="corners-dot-color-0-0"><circle cx="40" cy="40" r="15" transform="rotate(0,40,40)"/></g><g class="corners-square-color-1-0"><path clip-rule="evenodd" d="M 225 30v 20a 25 25, 0, 0, 0, 25 25h 20a 25 25, 0, 0, 0, 25 -25v -20a 25 25, 0, 0, 0, -25 -25h -20a 25 25, 0, 0, 0, -25 25M 250 15h 20a 15 15, 0, 0, 1, 15 15v 20a 15 15, 0, 0, 1, -15 15h -20a 15 15, 0, 0, 1, -15 -15v -20a 15 15, 0, 0, 1, 15 -15" transform="rotate(90,260,40)"/></g><g class="corners-dot-color-1-0"><circle cx="260" cy="40" r="15" transform="rotate(90,260,40)"/></g><g class="corners-square-color-0-1"><path clip-rule="evenodd" d="M 5 250v 20a 25 25, 0, 0, 0, 25 25h 20a 25 25, 0, 0, 0, 25 -25v -20a 25 25, 0, 0, 0, -25 -25h -20a 25 25, 0, 0, 0, -25 25M 30 235h 20a 15 15, 0, 0, 1, 15 15v 20a 15 15, 0, 0, 1, -15 15h -20a 15 15, 0, 0, 1, -15 -15v -20a 15 15, 0, 0, 1, 15 -15" transform="rotate(-90,40,260)"/></g><g class="corners-dot-color-0-1"><circle cx="40" cy="260" r="15" transform="rotate(-90,40,260)"/></g></svg></g></g></svg></svg>